# xmcd
#
# Track frame offsets:
#       150
#       11485
#       29816
#
# Disc length: 995 seconds
#
# Revision: 0
# Processed by: cddbd v1.5.1PL0 Copyright (c) Steve Scherf et al.
# Submitted via: WhereIsIt 3.51
#
DISCID=1e03e103
DTITLE=Ben Harper and The Innocent Criminals - Whole Lotta Love
DYEAR=2001
DGENRE=
TTITLE0=Whole Lotta Love (Live w/ Drum Edit)
TTITLE1=Whole Lotta Love/Faded (Live w/ Drum Edit)
TTITLE2=Faded/Whole Lotta Love (Album Version/Edit)
EXTD=
EXTT0=
EXTT1=
EXTT2=
PLAYORDER=
